<?xml version="1.0" encoding="UTF-8" standalone="no"?>
<!-- Svg Vector Icons : http://www.onlinewebfonts.com/icon -->

<svg
   version="1.1"
   x="0px"
   y="0px"
   viewBox="0 0 1000 1000"
   enable-background="new 0 0 1000 1000"
   xml:space="preserve"
   id="svg8"
   sodipodi:docname="pay-success.svg"
   inkscape:version="1.2.1 (9c6d41e, 2022-07-14)"
   xmlns:inkscape="http://www.inkscape.org/namespaces/inkscape"
   xmlns:sodipodi="http://sodipodi.sourceforge.net/DTD/sodipodi-0.dtd"
   xmlns="http://www.w3.org/2000/svg"
   xmlns:svg="http://www.w3.org/2000/svg"><defs
   id="defs12" /><sodipodi:namedview
   id="namedview10"
   pagecolor="#ffffff"
   bordercolor="#000000"
   borderopacity="0.25"
   inkscape:showpageshadow="2"
   inkscape:pageopacity="0.0"
   inkscape:pagecheckerboard="0"
   inkscape:deskcolor="#d1d1d1"
   showgrid="false"
   inkscape:zoom="0.39497913"
   inkscape:cx="97.473503"
   inkscape:cy="536.73721"
   inkscape:window-width="1728"
   inkscape:window-height="966"
   inkscape:window-x="0"
   inkscape:window-y="38"
   inkscape:window-maximized="1"
   inkscape:current-layer="svg8" />
<metadata
   id="metadata2"> Svg Vector Icons : http://www.onlinewebfonts.com/icon </metadata>
<path
   d="M 429.9,548.2 229.5,388.6 140.7,460.9 487.2,818.7 C 547.1,663.8 736.1,360.7 966.9,145.4 L 945.7,95.8 C 694.3,252.3 512,449.1 429.9,548.2 Z m 549.7,-149 h -49.7 c 7.6,32.4 11.6,66.1 11.6,100.8 C 941.5,743.8 743.8,941.5 500,941.5 256.1,941.5 58.5,743.8 58.5,500 58.5,256.2 256.2,58.5 500,58.5 c 59.4,0 116,11.7 167.7,33 v -52 C 614.1,19.9 557.8,10 500,10 433.9,10 369.7,23 309.2,48.5 c -58.4,24.7 -110.7,60 -155.7,105 -45,45 -80.3,97.4 -105,155.7 C 23,369.7 10,433.9 10,500 c 0,66.1 13,130.3 38.5,190.8 24.7,58.4 60,110.8 105,155.7 45,45 97.4,80.3 155.7,105 60.5,25.5 124.7,38.5 190.8,38.5 66.1,0 130.3,-13 190.8,-38.5 58.4,-24.7 110.8,-60 155.7,-105 44.9,-45 80.3,-97.4 105,-155.7 C 977,630.3 990,566.1 990,500 c 0,-34.2 -3.5,-67.9 -10.4,-100.8 z"
   id="path4"
   style="fill:#008000;fill-opacity:1"
   inkscape:highlight-color="#aaaaaa"
   inkscape:export-filename="../source/reddwarf/frontend/rd-component/public/pay-success.png"
   inkscape:export-xdpi="96"
   inkscape:export-ydpi="96" />
</svg>
